<svg width="119" height="160" viewBox="0 0 119 160" fill="none" xmlns="http://www.w3.org/2000/svg">
<path d="M44.7885 106.179C45.4785 109.765 46.2575 113.527 48.6415 116.292C52.3655 120.612 58.7335 121.192 64.4295 121.461C67.6565 121.613 71.4165 121.533 73.3915 118.978C74.8505 117.093 74.7965 114.5 75.0365 112.128C75.8015 104.576 80.0845 97.9249 83.2085 91.0079C91.2145 73.2829 91.6465 52.2839 84.3795 34.2439C83.3675 31.7339 82.1605 29.2049 80.1335 27.4109C77.8535 25.3949 74.7885 24.5289 71.7905 24.0069C58.1805 21.6339 31.9295 25.0269 32.7915 43.2649C33.7625 63.8159 40.8965 85.9549 44.7885 106.179Z" fill="#FFE7FB"/>
<path d="M104.253 185.626C106.759 185.696 109.464 185.709 111.505 184.255C114.962 181.793 114.718 176.667 114.042 172.477C111.687 157.881 107.677 142.078 95.7318 133.366C86.5238 126.651 74.3978 125.591 63.0098 125.992C53.8818 126.314 44.7958 127.419 35.7738 128.842C29.8868 129.77 23.7448 130.956 19.1068 134.7C12.6858 139.883 10.6538 148.644 9.01583 156.732C7.72583 163.097 1.59584 177.285 7.61784 182.036C13.1808 186.425 31.3518 183.575 38.3218 183.771C60.2988 184.389 82.2758 184.998 104.253 185.626Z" fill="#6987FF"/>
<path d="M48.0797 173.839C49.0657 178.148 50.5267 182.564 53.6997 185.643C56.8717 188.721 62.1877 189.979 65.7837 187.408C70.1147 184.312 69.8568 177.969 69.8658 172.646C69.8748 166.815 70.7498 160.987 72.4508 155.41C74.9388 147.256 79.2037 139.537 79.9917 131.049C80.2577 128.191 79.9287 124.905 77.6677 123.138C76.2937 122.064 74.4777 121.783 72.7457 121.576C63.1767 120.433 46.4917 117.564 43.4427 130.033C41.9847 135.993 44.5027 144.217 45.0487 150.265C45.7607 158.162 46.3067 166.088 48.0797 173.839Z" fill="#DBC9FF"/>
<path d="M44.6057 74.6279C42.1757 74.6519 39.7437 74.6759 37.3137 74.6999C36.6147 74.7059 35.8217 74.7549 35.3737 75.2919C34.8227 75.9519 35.1497 77.0259 35.8237 77.5599C36.4987 78.0929 37.3947 78.2289 38.2467 78.3459C39.3427 78.4969 40.4387 78.6479 41.5337 78.7989C43.0777 79.0119 44.8307 79.1679 46.0207 78.1619C47.2117 77.1559 46.7637 74.6059 45.2097 74.7239" fill="#F03FA3"/>
<path d="M78.7878 75.8477C76.3568 75.8717 73.9268 75.8947 71.4958 75.9187C70.7968 75.9257 70.0048 75.9747 69.5558 76.5117C69.0058 77.1717 69.3318 78.2457 70.0068 78.7797C70.6798 79.3127 71.5768 79.4487 72.4278 79.5657C73.5238 79.7167 74.6208 79.8677 75.7168 80.0187C77.2598 80.2307 79.0118 80.3877 80.2028 79.3817C81.3928 78.3757 80.9458 75.8257 79.3918 75.9447" fill="#F03FA3"/>
<path d="M40.3743 57.9367C41.0533 57.1217 41.9183 56.5527 42.8203 56.0887C43.7293 55.6347 44.7033 55.3207 45.7053 55.1377C47.6943 54.7787 49.8683 54.9277 51.6753 56.0067C50.6503 56.2947 49.7183 56.4097 48.7933 56.6087L46.0623 57.1047C44.2353 57.4157 42.4463 57.7827 40.3743 57.9367Z" fill="black"/>
<path d="M47.7865 65.5768C47.7865 67.1918 46.9655 68.4998 45.9515 68.4998C44.9385 68.4998 44.1175 67.1918 44.1175 65.5768C44.1175 63.9618 44.9385 62.6528 45.9515 62.6528C46.9655 62.6528 47.7865 63.9618 47.7865 65.5768Z" fill="black"/>
<path d="M80.4429 58.2486C78.3819 57.9776 76.6169 57.5106 74.8109 57.0976L72.1119 56.4486C71.1989 56.1986 70.2749 56.0306 69.2679 55.6846C71.1339 54.7106 73.3119 54.6836 75.2779 55.1536C76.2669 55.3926 77.2219 55.7616 78.1039 56.2656C78.9779 56.7806 79.8099 57.3966 80.4429 58.2486Z" fill="black"/>
<path d="M73.1175 65.5768C73.1175 67.1918 73.9385 68.4998 74.9525 68.4998C75.9655 68.4998 76.7865 67.1918 76.7865 65.5768C76.7865 63.9618 75.9655 62.6528 74.9525 62.6528C73.9385 62.6528 73.1175 63.9618 73.1175 65.5768Z" fill="black"/>
<path d="M58.1475 63.9209C58.2615 64.1719 57.4485 70.6659 55.3885 74.1379C55.3885 74.1379 54.9365 76.5279 59.5395 77.8269" stroke="black" stroke-miterlimit="10"/>
<path d="M53.5579 84.4517C53.5579 84.4517 61.6449 87.1327 67.9129 84.5897" stroke="black" stroke-miterlimit="10"/>
<path d="M47.3486 100.92L46.2086 112.96L45.7386 117.89L42.7786 119.75L26.1886 130.15C15.6186 136.78 8.16858 147.38 5.51858 159.57L0.488579 182.7" stroke="black" stroke-miterlimit="10"/>
<path d="M71.4388 100.04L71.8588 104.5L72.6788 113.09L73.1288 117.89L92.6788 130.15C103.249 136.78 110.699 147.38 113.349 159.57L118.379 182.7" stroke="black" stroke-miterlimit="10"/>
<path d="M91.169 46.3696C91.219 48.2596 91.229 50.0896 91.199 51.8596C91.199 51.8996 91.2091 51.9296 91.2091 51.9496C91.2091 51.9596 91.209 51.9796 91.199 51.9896C90.869 74.2996 84.9291 87.0696 78.2491 94.3696C75.9991 96.8296 73.6691 98.6596 71.4391 100.04C70.6991 100.5 69.969 100.9 69.259 101.26C63.569 104.15 59.0091 104.15 59.0091 104.15C57.8591 104.15 56.749 104.07 55.689 103.92C52.579 103.49 49.8191 102.44 47.3491 100.92C45.7391 99.9296 44.2591 98.7396 42.909 97.3896C33.849 88.4096 29.9891 72.3296 28.2691 60.6096L28.2591 60.5996C28.1891 60.1196 28.1191 59.6396 28.0591 59.1796C27.0591 51.9196 26.879 46.6496 26.719 46.3696" stroke="black" stroke-miterlimit="10"/>
<path d="M101.457 20.6968C107.266 40.7188 114.831 120.45 74.8903 118.998L71.4343 100.04C80.3033 94.5598 90.7543 81.7898 91.1943 51.9898C91.2043 51.9798 91.2043 51.9798 91.2043 51.9798C91.2043 51.9798 91.2043 51.9698 91.2043 51.9498C91.2043 51.9298 91.1943 51.8998 91.1943 51.8598C91.1443 50.9598 90.3843 44.9698 80.0933 30.4698C80.0933 30.4698 66.8243 46.3698 47.3443 46.3698C29.0543 46.3698 27.8343 55.5798 28.0543 59.1798C28.1143 60.0598 28.2543 60.5998 28.2543 60.5998L28.2643 60.6098C30.2443 74.0898 35.0543 93.3498 47.3443 100.92L45.7343 117.89L19.1063 134.7C16.7413 114.542 13.1433 88.1318 13.3033 55.4218C13.3033 55.4218 12.0833 -5.31116 69.2243 0.375844C69.2243 0.375844 82.8183 2.73084 84.7313 9.11884C84.7313 9.11884 98.5663 10.7378 101.457 20.6968Z" fill="black"/>
<path d="M45.7347 117.89C45.7347 117.89 59.2767 126.66 73.1247 117.89" stroke="black" stroke-miterlimit="10"/>
<path d="M43.972 118.998C43.972 118.998 59.447 132.621 74.891 118.998" stroke="black" stroke-miterlimit="10"/>
<path d="M52.3446 182.7C52.3446 182.7 52.2346 182.19 52.0346 181.25C51.8046 180.18 51.4646 178.56 51.0346 176.53C50.7146 175.03 50.3446 173.29 49.9446 171.39C49.6246 169.91 49.2946 168.33 48.9346 166.67C48.5846 165.02 48.2246 163.3 47.8446 161.53C47.5246 159.99 47.1846 158.41 46.8446 156.81C46.4846 155.1 46.1246 153.38 45.7546 151.67C45.4246 150.09 45.0846 148.51 44.7546 146.95C44.3846 145.2 44.0246 143.48 43.6746 141.81C43.3246 140.19 42.9946 138.6 42.6746 137.09C40.8346 128.33 39.4846 121.82 39.5246 121.79" stroke="black" stroke-miterlimit="10"/>
<path d="M30.3658 127.529C30.0498 127.727 28.7308 141.37 28.7308 141.37L41.2658 154.737L37.7498 162.853L50.7838 175.346" stroke="black" stroke-miterlimit="10"/>
<path d="M65.8148 182.7C65.8148 182.7 65.9247 182.19 66.1247 181.25C66.3547 180.18 66.6947 178.56 67.1247 176.53C67.4447 175.03 67.8148 173.29 68.2148 171.39C68.5348 169.91 68.8747 168.33 69.2247 166.67C69.5747 165.02 69.9447 163.3 70.3147 161.53C70.6447 159.99 70.9747 158.41 71.3147 156.81C71.6747 155.1 72.0347 153.38 72.4047 151.67C72.7347 150.09 73.0748 148.51 73.3948 146.95C73.7648 145.2 74.1347 143.48 74.4847 141.81C74.8247 140.19 75.1647 138.6 75.4747 137.09C77.3247 128.33 78.6747 121.82 78.6347 121.79" stroke="black" stroke-miterlimit="10"/>
<path d="M87.7933 127.529C88.1093 127.727 89.4283 141.37 89.4283 141.37L76.8933 154.737L80.4093 162.853L67.3753 175.346" stroke="black" stroke-miterlimit="10"/>
<path d="M75.4741 137.09C75.1641 138.6 74.8241 140.19 74.4841 141.81H43.6741C43.3241 140.19 42.9941 138.6 42.6741 137.09H75.4741Z" fill="black"/>
<path d="M73.3942 146.95C73.0742 148.51 72.7342 150.09 72.4042 151.67H45.7542C45.4242 150.09 45.0842 148.51 44.7542 146.95H73.3942Z" fill="black"/>
<path d="M71.315 156.81C70.975 158.41 70.645 159.99 70.315 161.53H47.845C47.525 159.99 47.185 158.41 46.845 156.81H71.315Z" fill="black"/>
<path d="M54.558 24.3787C54.558 30.7947 48.224 35.9967 40.41 35.9967C32.596 35.9967 26.262 30.7947 26.262 24.3787C26.262 17.9627 32.596 12.7607 40.41 12.7607C48.224 12.7607 54.558 17.9627 54.558 24.3787Z" stroke="white" stroke-width="2" stroke-miterlimit="10"/>
<path d="M91.6645 24.3787C91.6645 30.7947 85.3295 35.9967 77.5155 35.9967C69.7025 35.9967 63.3675 30.7947 63.3675 24.3787C63.3675 17.9627 69.7025 12.7607 77.5155 12.7607C85.3295 12.7607 91.6645 17.9627 91.6645 24.3787Z" stroke="white" stroke-width="2" stroke-miterlimit="10"/>
<path d="M54.5579 24.3788C54.5579 24.3788 58.6549 20.7238 63.3679 24.3788" stroke="white" stroke-width="2" stroke-miterlimit="10"/>
<path d="M71.8583 104.5C64.0083 107.16 51.8283 111.13 46.2083 112.96L47.3483 100.92C49.8183 102.44 52.5783 103.49 55.6883 103.92C56.7483 104.07 57.8583 104.15 59.0083 104.15C59.0083 104.15 63.5683 104.15 69.2583 101.26C69.9683 100.9 70.6983 100.5 71.4383 100.04L71.8583 104.5Z" fill="black"/>
</svg>
